<svg id="visual" viewBox="0 0 900 450" width="900" height="450" xmlns="http://www.w3.org/2000/svg" xmlns:xlink="http://www.w3.org/1999/xlink" version="1.1"><g stroke-width="1" stroke-linejoin="bevel"><path d="M469 224L529 202L492 188Z" fill="#2f648e" stroke="#2f648e"></path><path d="M469 224L522 326L529 202Z" fill="#2c719b" stroke="#2c719b"></path><path d="M492 188L415 172L469 224Z" fill="#297ea6" stroke="#297ea6"></path><path d="M469 224L388 179L438 283Z" fill="#323e66" stroke="#323e66"></path><path d="M577 306L602 205L529 202Z" fill="#315781" stroke="#315781"></path><path d="M529 202L523 78L492 188Z" fill="#25102d" stroke="#25102d"></path><path d="M492 188L474 58L415 172Z" fill="#324a74" stroke="#324a74"></path><path d="M438 283L522 326L469 224Z" fill="#297ea6" stroke="#297ea6"></path><path d="M522 326L577 306L529 202Z" fill="#200220" stroke="#200220"></path><path d="M415 172L388 179L469 224Z" fill="#313258" stroke="#313258"></path><path d="M439 407L525 350L522 326Z" fill="#2c719b" stroke="#2c719b"></path><path d="M522 326L525 350L577 306Z" fill="#2c719b" stroke="#2c719b"></path><path d="M622 120L523 78L529 202Z" fill="#2f648e" stroke="#2f648e"></path><path d="M415 172L364 97L388 179Z" fill="#323e66" stroke="#323e66"></path><path d="M333 273L388 313L438 283Z" fill="#323e66" stroke="#323e66"></path><path d="M438 283L439 407L522 326Z" fill="#25102d" stroke="#25102d"></path><path d="M602 205L622 120L529 202Z" fill="#2e264a" stroke="#2e264a"></path><path d="M325 190L341 192L364 97Z" fill="#313258" stroke="#313258"></path><path d="M388 179L333 273L438 283Z" fill="#324a74" stroke="#324a74"></path><path d="M523 78L474 58L492 188Z" fill="#200220" stroke="#200220"></path><path d="M525 350L625 335L577 306Z" fill="#315781" stroke="#315781"></path><path d="M577 306L693 281L602 205Z" fill="#324a74" stroke="#324a74"></path><path d="M602 205L675 194L622 120Z" fill="#2a1b3b" stroke="#2a1b3b"></path><path d="M622 120L586 66L523 78Z" fill="#2a1b3b" stroke="#2a1b3b"></path><path d="M523 78L486 0L474 58Z" fill="#323e66" stroke="#323e66"></path><path d="M693 281L675 194L602 205Z" fill="#323e66" stroke="#323e66"></path><path d="M622 120L656 105L586 66Z" fill="#200220" stroke="#200220"></path><path d="M341 192L333 273L388 179Z" fill="#2c719b" stroke="#2c719b"></path><path d="M364 97L341 192L388 179Z" fill="#313258" stroke="#313258"></path><path d="M341 192L325 190L333 273Z" fill="#313258" stroke="#313258"></path><path d="M474 58L364 97L415 172Z" fill="#200220" stroke="#200220"></path><path d="M675 194L656 105L622 120Z" fill="#313258" stroke="#313258"></path><path d="M381 390L439 407L388 313Z" fill="#2f648e" stroke="#2f648e"></path><path d="M388 313L439 407L438 283Z" fill="#323e66" stroke="#323e66"></path><path d="M525 350L638 368L625 335Z" fill="#324a74" stroke="#324a74"></path><path d="M625 335L693 281L577 306Z" fill="#297ea6" stroke="#297ea6"></path><path d="M570 450L638 368L525 350Z" fill="#2a1b3b" stroke="#2a1b3b"></path><path d="M625 335L717 299L693 281Z" fill="#2f648e" stroke="#2f648e"></path><path d="M262 357L381 390L388 313Z" fill="#25102d" stroke="#25102d"></path><path d="M753 132L692 116L675 194Z" fill="#2f648e" stroke="#2f648e"></path><path d="M675 194L692 116L656 105Z" fill="#323e66" stroke="#323e66"></path><path d="M642 0L560 0L586 66Z" fill="#2f648e" stroke="#2f648e"></path><path d="M560 0L486 0L523 78Z" fill="#324a74" stroke="#324a74"></path><path d="M474 58L413 0L364 97Z" fill="#2f648e" stroke="#2f648e"></path><path d="M560 0L523 78L586 66Z" fill="#2f648e" stroke="#2f648e"></path><path d="M486 0L464 0L474 58Z" fill="#2a1b3b" stroke="#2a1b3b"></path><path d="M642 0L586 66L656 105Z" fill="#313258" stroke="#313258"></path><path d="M364 97L277 179L325 190Z" fill="#200220" stroke="#200220"></path><path d="M325 190L277 179L333 273Z" fill="#315781" stroke="#315781"></path><path d="M333 273L262 357L388 313Z" fill="#2a1b3b" stroke="#2a1b3b"></path><path d="M295 72L277 179L364 97Z" fill="#2f648e" stroke="#2f648e"></path><path d="M693 281L730 217L675 194Z" fill="#313258" stroke="#313258"></path><path d="M638 368L717 299L625 335Z" fill="#315781" stroke="#315781"></path><path d="M693 281L717 299L730 217Z" fill="#200220" stroke="#200220"></path><path d="M426 450L538 450L439 407Z" fill="#200220" stroke="#200220"></path><path d="M439 407L538 450L525 350Z" fill="#25102d" stroke="#25102d"></path><path d="M464 0L413 0L474 58Z" fill="#2c719b" stroke="#2c719b"></path><path d="M538 450L570 450L525 350Z" fill="#315781" stroke="#315781"></path><path d="M638 368L736 395L717 299Z" fill="#313258" stroke="#313258"></path><path d="M381 390L426 450L439 407Z" fill="#25102d" stroke="#25102d"></path><path d="M303 0L295 72L364 97Z" fill="#25102d" stroke="#25102d"></path><path d="M295 72L250 164L277 179Z" fill="#297ea6" stroke="#297ea6"></path><path d="M219 321L262 357L333 273Z" fill="#297ea6" stroke="#297ea6"></path><path d="M717 68L642 0L656 105Z" fill="#25102d" stroke="#25102d"></path><path d="M692 116L717 68L656 105Z" fill="#2c719b" stroke="#2c719b"></path><path d="M753 132L717 68L692 116Z" fill="#297ea6" stroke="#297ea6"></path><path d="M814 214L753 132L730 217Z" fill="#200220" stroke="#200220"></path><path d="M730 217L753 132L675 194Z" fill="#313258" stroke="#313258"></path><path d="M209 199L333 273L277 179Z" fill="#200220" stroke="#200220"></path><path d="M381 390L346 450L426 450Z" fill="#25102d" stroke="#25102d"></path><path d="M312 450L346 450L381 390Z" fill="#323e66" stroke="#323e66"></path><path d="M570 450L670 450L638 368Z" fill="#2f648e" stroke="#2f648e"></path><path d="M198 96L209 199L250 164Z" fill="#2f648e" stroke="#2f648e"></path><path d="M250 164L209 199L277 179Z" fill="#2f648e" stroke="#2f648e"></path><path d="M670 450L736 395L638 368Z" fill="#2c719b" stroke="#2c719b"></path><path d="M832 273L814 214L730 217Z" fill="#2e264a" stroke="#2e264a"></path><path d="M413 0L303 0L364 97Z" fill="#25102d" stroke="#25102d"></path><path d="M295 72L198 96L250 164Z" fill="#2e264a" stroke="#2e264a"></path><path d="M262 357L312 450L381 390Z" fill="#313258" stroke="#313258"></path><path d="M209 199L219 321L333 273Z" fill="#25102d" stroke="#25102d"></path><path d="M262 357L200 390L312 450Z" fill="#2e264a" stroke="#2e264a"></path><path d="M832 273L730 217L717 299Z" fill="#297ea6" stroke="#297ea6"></path><path d="M807 0L761 0L717 68Z" fill="#2e264a" stroke="#2e264a"></path><path d="M236 0L198 96L295 72Z" fill="#200220" stroke="#200220"></path><path d="M156 277L178 338L219 321Z" fill="#313258" stroke="#313258"></path><path d="M814 214L830 174L753 132Z" fill="#2a1b3b" stroke="#2a1b3b"></path><path d="M809 365L832 273L717 299Z" fill="#2a1b3b" stroke="#2a1b3b"></path><path d="M814 214L900 185L830 174Z" fill="#324a74" stroke="#324a74"></path><path d="M848 99L717 68L753 132Z" fill="#297ea6" stroke="#297ea6"></path><path d="M717 68L761 0L642 0Z" fill="#25102d" stroke="#25102d"></path><path d="M736 395L809 365L717 299Z" fill="#200220" stroke="#200220"></path><path d="M764 450L809 365L736 395Z" fill="#2e264a" stroke="#2e264a"></path><path d="M303 0L236 0L295 72Z" fill="#324a74" stroke="#324a74"></path><path d="M156 277L219 321L209 199Z" fill="#313258" stroke="#313258"></path><path d="M219 321L200 390L262 357Z" fill="#297ea6" stroke="#297ea6"></path><path d="M178 338L200 390L219 321Z" fill="#323e66" stroke="#323e66"></path><path d="M670 450L764 450L736 395Z" fill="#2c719b" stroke="#2c719b"></path><path d="M127 212L156 277L209 199Z" fill="#2a1b3b" stroke="#2a1b3b"></path><path d="M900 141L848 99L830 174Z" fill="#2e264a" stroke="#2e264a"></path><path d="M830 174L848 99L753 132Z" fill="#2a1b3b" stroke="#2a1b3b"></path><path d="M236 0L164 62L198 96Z" fill="#200220" stroke="#200220"></path><path d="M125 157L127 212L209 199Z" fill="#2e264a" stroke="#2e264a"></path><path d="M125 157L209 199L198 96Z" fill="#2c719b" stroke="#2c719b"></path><path d="M155 450L200 390L91 401Z" fill="#315781" stroke="#315781"></path><path d="M848 99L807 0L717 68Z" fill="#2c719b" stroke="#2c719b"></path><path d="M200 390L198 450L312 450Z" fill="#2c719b" stroke="#2c719b"></path><path d="M155 450L198 450L200 390Z" fill="#25102d" stroke="#25102d"></path><path d="M200 390L178 338L91 401Z" fill="#323e66" stroke="#323e66"></path><path d="M105 105L125 157L198 96Z" fill="#2f648e" stroke="#2f648e"></path><path d="M236 0L171 0L164 62Z" fill="#323e66" stroke="#323e66"></path><path d="M164 62L105 105L198 96Z" fill="#200220" stroke="#200220"></path><path d="M832 273L900 185L814 214Z" fill="#2c719b" stroke="#2c719b"></path><path d="M848 99L900 56L807 0Z" fill="#324a74" stroke="#324a74"></path><path d="M900 285L900 185L832 273Z" fill="#315781" stroke="#315781"></path><path d="M900 376L900 285L809 365Z" fill="#315781" stroke="#315781"></path><path d="M809 365L900 285L832 273Z" fill="#313258" stroke="#313258"></path><path d="M900 185L900 141L830 174Z" fill="#2c719b" stroke="#2c719b"></path><path d="M764 450L842 450L809 365Z" fill="#2e264a" stroke="#2e264a"></path><path d="M113 0L105 105L164 62Z" fill="#324a74" stroke="#324a74"></path><path d="M69 256L86 291L127 212Z" fill="#200220" stroke="#200220"></path><path d="M86 291L156 277L127 212Z" fill="#2f648e" stroke="#2f648e"></path><path d="M86 291L178 338L156 277Z" fill="#200220" stroke="#200220"></path><path d="M80 188L127 212L125 157Z" fill="#313258" stroke="#313258"></path><path d="M105 105L80 188L125 157Z" fill="#313258" stroke="#313258"></path><path d="M842 450L900 376L809 365Z" fill="#313258" stroke="#313258"></path><path d="M900 141L900 56L848 99Z" fill="#323e66" stroke="#323e66"></path><path d="M80 188L69 256L127 212Z" fill="#315781" stroke="#315781"></path><path d="M86 291L91 401L178 338Z" fill="#2c719b" stroke="#2c719b"></path><path d="M0 131L0 228L80 188Z" fill="#200220" stroke="#200220"></path><path d="M171 0L113 0L164 62Z" fill="#324a74" stroke="#324a74"></path><path d="M0 395L91 401L86 291Z" fill="#2c719b" stroke="#2c719b"></path><path d="M900 56L900 0L807 0Z" fill="#2c719b" stroke="#2c719b"></path><path d="M842 450L900 450L900 376Z" fill="#2c719b" stroke="#2c719b"></path><path d="M0 450L91 450L91 401Z" fill="#2f648e" stroke="#2f648e"></path><path d="M91 401L91 450L155 450Z" fill="#2c719b" stroke="#2c719b"></path><path d="M80 188L0 228L69 256Z" fill="#2c719b" stroke="#2c719b"></path><path d="M69 256L0 278L86 291Z" fill="#25102d" stroke="#25102d"></path><path d="M0 131L80 188L105 105Z" fill="#313258" stroke="#313258"></path><path d="M0 228L0 278L69 256Z" fill="#323e66" stroke="#323e66"></path><path d="M0 66L0 131L105 105Z" fill="#313258" stroke="#313258"></path><path d="M113 0L0 66L105 105Z" fill="#2c719b" stroke="#2c719b"></path><path d="M0 278L0 395L86 291Z" fill="#2c719b" stroke="#2c719b"></path><path d="M113 0L0 0L0 66Z" fill="#2e264a" stroke="#2e264a"></path><path d="M0 395L0 450L91 401Z" fill="#2f648e" stroke="#2f648e"></path></g></svg>